<?xml version="1.0" encoding="UTF-8"?>
<svg width="1200pt" height="1200pt" version="1.1" viewBox="0 0 1200 1200" fill="#ffffff" xmlns="http://www.w3.org/2000/svg">
 <path d="m326.86 556.34c97.488 162.56 452.36 200.73 550.81 72.695 45.156-58.668 26.617-111.68-0.58984-145.39-11.328 47.594-34.883 90.707-34.883 90.707-79.008 103.73-258.25 53.52-258.25 53.52-244.27-63.938-242.24-197.77-242.24-197.77-0.69531-26.52 7.4648-52.309 17.723-73.609-48.441 6.1953-121.93 50.801-32.566 199.85z"/>
 <path d="m674 607.27c7.7539-30.84 16.441-73.934 22.68-108.78-28.559-1.6445-59.195-5.9531-90.684-13.5-17.34-4.1641-34.066-9.1445-50.004-14.746l-35.363 107.59c20.375 7.5977 43.273 14.688 69.035 21.023 0.011719-0.003906 36.191 8.6367 84.336 8.4102z"/>
 <path d="m619.15 421.46c94.945 24.047 180.66 8.9883 191.45-33.613 10.789-42.648-57.422-96.66-152.34-120.72-94.945-24.047-180.66-8.9883-191.47 33.637-10.789 42.598 57.418 96.633 152.36 120.7zm35.41-142.15c62.734 15.887 107.81 51.637 100.67 79.777-7.1172 28.176-63.742 38.102-126.5 22.211-62.723-15.91-107.8-51.637-100.64-79.766 7.1172-28.152 63.746-38.098 126.48-22.223z"/>
 <path d="m635.09 354.43c-41.145-10.422-70.703-33.848-66.023-52.316 4.6797-18.473 41.824-24.996 82.969-14.57 41.145 10.422 70.703 33.848 66.023 52.316-4.6797 18.473-41.828 24.996-82.969 14.57"/>
 <path d="m833.71 546.97c15.719-30.637 19.645-50.387 20.641-75.938-16.391 14.426-50.062 22.512-93.348 26.543l-28.246 104.61c39.168-6.9492 69.094-14.086 100.95-55.211z"/>
 <path d="m1089.7 451.69c-47.605-49.836-97.656-63.816-97.656-63.816s-70.586-20.137-144.77-38.34c-35.746-37.777-103.59-73.824-185.63-94.633-122.24-30.961-232.86-17.039-258.54 30.301-72.574-17.879-171.18-41.832-197.65-46.43-83.375-14.508-267.55 57.227-78.602 372.36 176.92 295.14 800.39 354.21 979.11 121.83 90.105-117.19 40.402-221.94-16.262-281.27zm-429.48-191.14c111.65 28.273 191.84 91.836 179.16 141.96-12.695 50.09-113.48 67.812-225.13 39.504-111.62-28.273-191.84-91.812-179.16-141.94 12.688-50.121 113.48-67.797 225.13-39.527zm399.73 454.01c-162.73 211.57-730.36 157.8-891.46-110.88-172.04-286.97-4.332-352.26 71.578-339.06 21.469 3.7305 95.219 21.48 157.78 36.793-0.82813 6.7188-0.14453 13.645 1.8828 20.652-0.085938 0-0.15625-0.023437-0.23828-0.023437 0.83984 2.7344 1.9805 5.5195 3.2539 8.3047 20.855 48.238 102.57 99.961 207.71 126.59 130.99 33.203 248.64 14.855 262.77-40.922 3.2266-12.637 0.74219-26.172-6.3828-39.863 49.738 12.875 89.398 24.191 89.398 24.191s45.562 12.719 88.906 58.129c51.586 54.02 96.863 149.37 14.809 256.09z"/>
 <path d="m450.89 544.67 48.59-98.258c-53.461-26.629-91.906-58.586-105.7-83.594-16.789 15.18-30.73 44.652-33.445 76.129 7.4414 26.738 28.992 68.234 90.551 105.72z"/>
 <path d="m995.26 466.6c-38.594-40.402-79.152-51.73-79.152-51.73s-15.336-4.3555-38.387-10.609c3.6953 10.223 5.293 21.613 5.3398 33.504 12.527 6.5508 29.305 17.375 45.684 34.523 38.23 40.02 71.785 110.7 10.957 189.76-120.6 156.82-541.29 116.98-660.67-82.176-127.51-212.66-3.2383-261.07 53.027-251.27 6.8047 1.1875 20.746 4.2969 38.074 8.293 4.5-7.332 8.9766-13.715 12.949-18.828-45.277-10.98-89.34-21.371-104.44-24-67.57-11.762-216.82 46.379-63.707 301.77 143.4 239.16 648.65 287.04 793.46 98.723 73.031-94.984 32.746-179.87-13.141-227.95z"/>
</svg>
